<svg xmlns="http://www.w3.org/2000/svg" width="16.427" height="17.8" viewBox="0 0 16.427 17.8">
  <path id="Shape" d="M7.3,7.5s-2-.6-1-1.7a4.266,4.266,0,0,0,1.2-4A2.192,2.192,0,0,0,5.3,0C4.3,0,2,.2,2.2,3.4A6.517,6.517,0,0,0,3.2,6a.908.908,0,0,1,0,1L.9,9.3c-1,1-1,3.5-.8,5.5a1.714,1.714,0,0,0,1.7,1.7,38.288,38.288,0,0,0,4.8,0c.6,0,1.8,0,1.6-2.8s0-3.1,0-3.1,0-1.4,1.9-2.3a.63.63,0,0,0,.3-.8c-.7-1.2-2.1-4.1.4-4.9,2-.7,3,1.3,3.1,2.6a2.279,2.279,0,0,1-.3,1.1,6.561,6.561,0,0,0-1,1.7c-.1.5.8,1.1,1.6,1.5a1.933,1.933,0,0,1,1.1,1.4,22.788,22.788,0,0,1,.1,3.8c0,.6.2,1.3-1.3,2l-4.4.1" transform="translate(0.503 0.5)" fill="none" stroke="#4e4e4e" stroke-miterlimit="10" stroke-width="1"/>
</svg>
