<svg id="Group_7" data-name="Group 7" xmlns="http://www.w3.org/2000/svg" width="15" height="15" viewBox="0 0 15 15">
  <path id="Path" d="M15,13.25A1.709,1.709,0,0,1,13.25,15H1.75A1.709,1.709,0,0,1,0,13.25V1.75A1.709,1.709,0,0,1,1.75,0H13.125A1.742,1.742,0,0,1,15,1.75v11.5Z" fill="#757575"/>
  <circle id="Oval" cx="2.875" cy="2.875" r="2.875" transform="translate(4.625 4.625)" fill="#fff"/>
  <path id="Shape" d="M.408,2.875h2A.331.331,0,0,0,2.783,2.5V.375A.4.4,0,0,0,2.408,0h-2A.331.331,0,0,0,.033.375v2c-.125.25.125.5.375.5Z" transform="translate(10.467 1.75)" fill="#fff"/>
  <path id="Shape-2" data-name="Shape" d="M10.375,1.25A4.51,4.51,0,0,1,5.75,5.75a4.589,4.589,0,0,1-4.625-4.5A4.252,4.252,0,0,1,1.25,0H0V6.5a.4.4,0,0,0,.375.375h10.75A.331.331,0,0,0,11.5,6.5V0H10.125a5.5,5.5,0,0,1,.25,1.25Z" transform="translate(1.75 6.25)" fill="#fff"/>
</svg>
