<svg xmlns="http://www.w3.org/2000/svg" width="14" height="12" viewBox="0 0 14 12">
  <path id="Shape" d="M14,1.423a5.028,5.028,0,0,1-1.633.495A3.26,3.26,0,0,0,13.65.247,5.119,5.119,0,0,1,11.842.99,2.755,2.755,0,0,0,9.742,0,2.953,2.953,0,0,0,6.883,3.031a2.454,2.454,0,0,0,.058.68A7.917,7.917,0,0,1,.992.495,2.919,2.919,0,0,0,.583,2.041,3.159,3.159,0,0,0,1.867,4.577,2.252,2.252,0,0,1,.583,4.206v.062A2.962,2.962,0,0,0,2.858,7.237a2.8,2.8,0,0,1-.758.124A1.528,1.528,0,0,1,1.575,7.3,2.791,2.791,0,0,0,4.258,9.4,5.627,5.627,0,0,1,.7,10.7a2.683,2.683,0,0,1-.7-.062A7.831,7.831,0,0,0,4.375,12c5.308,0,8.167-4.639,8.167-8.66V2.969A7.136,7.136,0,0,0,14,1.423Z" fill="#767676"/>
</svg>
